<?xml version="1.0" encoding="utf-8"?>
<!-- Generator: Adobe Illustrator 28.0.0, SVG Export Plug-In . SVG Version: 6.00 Build 0)  -->
<svg version="1.1" id="图层_1" xmlns="http://www.w3.org/2000/svg" xmlns:xlink="http://www.w3.org/1999/xlink" x="0px" y="0px"
	 viewBox="0 0 512 512" style="enable-background:new 0 0 512 512;" xml:space="preserve">
<style type="text/css">
	.st0{fill:#FFFFFF;}
</style>
<g>
	<path class="st0" d="M334.2,349.7c-25.1,19.6-52.6,28.9-82.5,27.9c-30-1-56.3-12.5-79.1-34.4c-24.2-25.3-36.4-54.1-36.6-86.5
		c-0.2-32.4,11.2-61.2,34.2-86.5c24.1-23.9,52.3-35.7,84.4-35.2c32.1,0.5,60.8,12.2,86.1,35.2c21,21.6,32.5,46.6,34.7,74.9
		c2.2,28.3-5,54.4-21.4,78.3l67.7,68c3.4,3.4,5.1,7.4,5.1,12s-1.7,8.5-5.1,11.8c-3.4,3.3-7.4,5-12,5c-4.6,0-8.5-1.6-12-4.8
		L334.2,349.7z M318.9,318.9c17.5-18.2,26.3-39,26.3-62.2s-8.8-44-26.3-62.2c-18.2-17.5-39-26.3-62.2-26.3s-44,8.8-62.2,26.3
		c-17.6,18.2-26.3,39-26.3,62.2s8.8,44,26.3,62.2c18.2,17.5,39,26.1,62.2,25.6C279.9,344.1,300.6,335.6,318.9,318.9z"/>
</g>
</svg>
